<?xml version="1.0" encoding="UTF-8"?>
<svg id="Capa_1" data-name="Capa 1" xmlns="http://www.w3.org/2000/svg" xmlns:xlink="http://www.w3.org/1999/xlink" viewBox="0 0 286.23 283.3">
  <defs>
    <style>
      .cls-1 {
        fill: none;
      }

      .cls-2 {
        fill: #00c6ff;
      }

      .cls-3 {
        fill: #fff;
      }

      .cls-4 {
        clip-path: url(#clippath);
      }
    </style>
    <clipPath id="clippath">
      <rect class="cls-1" x="11.59" y="10.12" width="263.06" height="263.06"/>
    </clipPath>
  </defs>
  <g class="cls-4">
    <g>
      <rect class="cls-2" x="11.59" y="10.12" width="263.06" height="263.06"/>
      <g>
        <path class="cls-3" d="M65.15,73.93l10.3,28.94h.12v-28.94h7.81v42.26h-9.71l-10.42-29.59h-.12v29.59h-7.81v-42.26h9.82Z"/>
        <path class="cls-3" d="M89.71,116.19v-42.26h8.52v42.26h-8.52Z"/>
        <path class="cls-3" d="M126.76,73.93v29.47c0,4.2,1.01,7.34,4.97,7.34s4.97-3.14,4.97-7.34v-29.47h8.52v29.47c0,10.77-6.57,13.61-13.49,13.61s-13.49-2.31-13.49-13.61v-29.47h8.52Z"/>
        <path class="cls-3" d="M160.44,73.93l10.3,28.94h.12v-28.94h7.81v42.26h-9.71l-10.42-29.59h-.12v29.59h-7.81v-42.26h9.82Z"/>
        <path class="cls-3" d="M55.32,121.48h14.91c8.64,0,11.6,6.33,11.6,12.67,0,8.76-5.39,12.72-13.44,12.72h-4.56v16.87h-8.52v-42.26ZM63.84,140.6h3.79c3.37,0,5.68-2.01,5.68-6.33s-1.66-6.51-5.92-6.51h-3.55v12.84Z"/>
        <path class="cls-3" d="M91.07,121.48h10.54l11.19,42.26h-8.88l-1.95-8.94h-11.25l-1.95,8.94h-8.88l11.19-42.26ZM92.19,147.82h8.29l-4.08-19h-.12l-4.08,19Z"/>
        <path class="cls-3" d="M115.93,121.48h12.67l6.04,29.83h.12l6.1-29.83h12.61v42.26h-7.81v-33.74h-.12l-7.52,33.74h-6.63l-7.52-33.74h-.12v33.74h-7.81v-42.26Z"/>
        <path class="cls-3" d="M174.17,121.48h13.97c11.84,0,13.97,8.11,13.97,20.54,0,14.97-3.2,21.72-14.5,21.72h-13.44v-42.26ZM182.69,157.47h3.79c5.92,0,7.1-3.73,7.1-15.21,0-9.59-.77-14.5-7.28-14.5h-3.61v29.71Z"/>
        <path class="cls-3" d="M231.34,121.48v6.98h-15.09v9.94h14.2v6.98h-14.2v11.36h15.68v6.98h-24.21v-42.26h23.61Z"/>
        <path class="cls-3" d="M80.06,169.04v6.98h-9.23v35.27h-8.52v-35.27h-9.23v-6.98h26.99Z"/>
        <path class="cls-3" d="M107.35,169.04v6.98h-15.09v9.94h14.2v6.98h-14.2v11.36h15.68v6.98h-24.21v-42.26h23.61Z"/>
        <path class="cls-3" d="M112.2,169.04h15.74c6.98,0,11.25,3.67,11.25,10.89,0,5.62-2.25,9.41-7.04,10.42v.12c5.8.77,6.69,3.97,6.81,12.9.06,4.44.3,6.75,1.89,7.58v.35h-9.23c-.83-1.18-1.01-2.78-1.07-4.44l-.24-8.11c-.12-3.31-1.6-5.33-5.03-5.33h-4.56v17.87h-8.52v-42.26ZM120.72,187.5h3.55c4.08,0,6.39-1.78,6.39-6.33,0-3.91-2.07-5.86-5.92-5.86h-4.02v12.19Z"/>
        <path class="cls-3" d="M145.11,169.04h15.74c6.98,0,11.25,3.67,11.25,10.89,0,5.62-2.25,9.41-7.04,10.42v.12c5.8.77,6.69,3.97,6.81,12.9.06,4.44.3,6.75,1.89,7.58v.35h-9.23c-.83-1.18-1.01-2.78-1.07-4.44l-.24-8.11c-.12-3.31-1.6-5.33-5.03-5.33h-4.56v17.87h-8.52v-42.26ZM153.63,187.5h3.55c4.08,0,6.39-1.78,6.39-6.33,0-3.91-2.07-5.86-5.92-5.86h-4.02v12.19Z"/>
        <path class="cls-3" d="M186.24,169.04h10.54l11.19,42.26h-8.88l-1.95-8.94h-11.25l-1.95,8.94h-8.88l11.19-42.26ZM187.37,195.38h8.29l-4.08-19h-.12l-4.08,19Z"/>
      </g>
    </g>
  </g>
</svg>